<?xml version="1.0" encoding="UTF-8"?>
<!DOCTYPE svg PUBLIC "-//W3C//DTD SVG 1.1//EN" "http://www.w3.org/Graphics/SVG/1.1/DTD/svg11.dtd">
<svg xmlns="http://www.w3.org/2000/svg" version="1.1" width="898px" height="1600px" style="shape-rendering:geometricPrecision; text-rendering:geometricPrecision; image-rendering:optimizeQuality; fill-rule:evenodd; clip-rule:evenodd" xmlns:xlink="http://www.w3.org/1999/xlink">
<g><path style="opacity:1" fill="#fffefe" d="M -0.5,-0.5 C 139.5,-0.5 279.5,-0.5 419.5,-0.5C 269.245,14.0102 152.411,83.6769 69,208.5C 27.608,275.416 4.44134,348.082 -0.5,426.5C -0.5,284.167 -0.5,141.833 -0.5,-0.5 Z"/></g>
<g><path style="opacity:1" fill="#fffefe" d="M 459.5,-0.5 C 605.5,-0.5 751.5,-0.5 897.5,-0.5C 897.5,150.5 897.5,301.5 897.5,452.5C 897.167,452.5 896.833,452.5 896.5,452.5C 895.78,314.924 844.447,200.424 742.5,109C 660.925,40.186 566.592,3.68602 459.5,-0.5 Z"/></g>
<g><path style="opacity:1" fill="#ff0000" d="M 419.5,-0.5 C 432.833,-0.5 446.167,-0.5 459.5,-0.5C 566.592,3.68602 660.925,40.186 742.5,109C 844.447,200.424 895.78,314.924 896.5,452.5C 895.977,472.999 893.81,493.333 890,513.5C 875.944,580.005 857.611,645.338 835,709.5C 798.942,811.346 759.942,912.012 718,1011.5C 633.899,1209.38 544.065,1404.71 448.5,1597.5C 332.13,1363.85 224.963,1126.18 127,884.5C 92.438,798.15 61.438,710.484 34,621.5C 24.5676,589.437 16.2343,557.103 9,524.5C 4.64593,502.189 1.47926,479.856 -0.5,457.5C -0.5,447.167 -0.5,436.833 -0.5,426.5C 4.44134,348.082 27.608,275.416 69,208.5C 152.411,83.6769 269.245,14.0102 419.5,-0.5 Z"/></g>
<g><path style="opacity:1" fill="#fffefe" d="M 418.5,250.5 C 490.024,242.944 550.19,265.278 599,317.5C 650.592,381.063 661.258,451.063 631,527.5C 601.063,590.566 551.897,629.399 483.5,644C 410.026,654.512 348.193,632.679 298,578.5C 250.852,520.424 238.186,455.424 260,383.5C 288.691,310.303 341.524,265.969 418.5,250.5 Z"/></g>
<g><path style="opacity:1" fill="#fffefe" d="M 896.5,452.5 C 896.833,452.5 897.167,452.5 897.5,452.5C 897.5,834.833 897.5,1217.17 897.5,1599.5C 598.167,1599.5 298.833,1599.5 -0.5,1599.5C -0.5,1218.83 -0.5,838.167 -0.5,457.5C 1.47926,479.856 4.64593,502.189 9,524.5C 16.2343,557.103 24.5676,589.437 34,621.5C 61.438,710.484 92.438,798.15 127,884.5C 224.963,1126.18 332.13,1363.85 448.5,1597.5C 544.065,1404.71 633.899,1209.38 718,1011.5C 759.942,912.012 798.942,811.346 835,709.5C 857.611,645.338 875.944,580.005 890,513.5C 893.81,493.333 895.977,472.999 896.5,452.5 Z"/></g>
</svg>
